<mxfile host="app.diagrams.net" modified="2023-04-06T11:45:21.370Z" agent="Mozilla/5.0 (Windows NT 10.0; Win64; x64) AppleWebKit/537.36 (KHTML, like Gecko) Chrome/111.0.0.0 Safari/537.36" etag="AMmAI6s9cSUcGAxk7NAD" version="21.1.4" type="device">
  <diagram name="Page-1" id="10a91c8b-09ff-31b1-d368-03940ed4cc9e">
    <mxGraphModel dx="1280" dy="749" grid="1" gridSize="10" guides="1" tooltips="1" connect="1" arrows="1" fold="1" page="1" pageScale="1" pageWidth="1100" pageHeight="850" background="none" math="0" shadow="0">
      <root>
        <mxCell id="0" />
        <mxCell id="1" parent="0" />
        <mxCell id="V8J6lZMz988ycU7OSSYj-10" style="edgeStyle=orthogonalEdgeStyle;rounded=0;orthogonalLoop=1;jettySize=auto;html=1;exitX=1;exitY=0.75;exitDx=0;exitDy=0;entryX=0.5;entryY=0;entryDx=0;entryDy=0;" edge="1" parent="1" source="V8J6lZMz988ycU7OSSYj-4" target="V8J6lZMz988ycU7OSSYj-6">
          <mxGeometry relative="1" as="geometry">
            <Array as="points">
              <mxPoint x="570" y="110" />
              <mxPoint x="720" y="110" />
            </Array>
          </mxGeometry>
        </mxCell>
        <mxCell id="V8J6lZMz988ycU7OSSYj-11" style="edgeStyle=orthogonalEdgeStyle;rounded=0;orthogonalLoop=1;jettySize=auto;html=1;exitX=0.5;exitY=1;exitDx=0;exitDy=0;entryX=0.5;entryY=0;entryDx=0;entryDy=0;" edge="1" parent="1" source="V8J6lZMz988ycU7OSSYj-4" target="V8J6lZMz988ycU7OSSYj-5">
          <mxGeometry relative="1" as="geometry" />
        </mxCell>
        <mxCell id="V8J6lZMz988ycU7OSSYj-12" style="edgeStyle=orthogonalEdgeStyle;rounded=0;orthogonalLoop=1;jettySize=auto;html=1;exitX=0;exitY=0.5;exitDx=0;exitDy=0;entryX=0.5;entryY=0;entryDx=0;entryDy=0;" edge="1" parent="1" source="V8J6lZMz988ycU7OSSYj-4" target="V8J6lZMz988ycU7OSSYj-8">
          <mxGeometry relative="1" as="geometry" />
        </mxCell>
        <mxCell id="V8J6lZMz988ycU7OSSYj-4" value="App.js" style="rounded=0;whiteSpace=wrap;html=1;" vertex="1" parent="1">
          <mxGeometry x="460" y="80" width="110" height="60" as="geometry" />
        </mxCell>
        <mxCell id="V8J6lZMz988ycU7OSSYj-17" style="edgeStyle=orthogonalEdgeStyle;rounded=0;orthogonalLoop=1;jettySize=auto;html=1;exitX=1;exitY=0.5;exitDx=0;exitDy=0;entryX=0.5;entryY=0;entryDx=0;entryDy=0;" edge="1" parent="1" source="V8J6lZMz988ycU7OSSYj-5" target="V8J6lZMz988ycU7OSSYj-14">
          <mxGeometry relative="1" as="geometry" />
        </mxCell>
        <mxCell id="V8J6lZMz988ycU7OSSYj-18" style="edgeStyle=orthogonalEdgeStyle;rounded=0;orthogonalLoop=1;jettySize=auto;html=1;exitX=0;exitY=0.5;exitDx=0;exitDy=0;entryX=0.5;entryY=0;entryDx=0;entryDy=0;" edge="1" parent="1" source="V8J6lZMz988ycU7OSSYj-5" target="V8J6lZMz988ycU7OSSYj-13">
          <mxGeometry relative="1" as="geometry" />
        </mxCell>
        <mxCell id="V8J6lZMz988ycU7OSSYj-5" value="Content.js" style="rounded=0;whiteSpace=wrap;html=1;" vertex="1" parent="1">
          <mxGeometry x="455" y="250" width="120" height="60" as="geometry" />
        </mxCell>
        <mxCell id="V8J6lZMz988ycU7OSSYj-6" value="Footer.js" style="rounded=0;whiteSpace=wrap;html=1;" vertex="1" parent="1">
          <mxGeometry x="660" y="140" width="120" height="60" as="geometry" />
        </mxCell>
        <mxCell id="V8J6lZMz988ycU7OSSYj-8" value="Content.js" style="rounded=0;whiteSpace=wrap;html=1;" vertex="1" parent="1">
          <mxGeometry x="220" y="150" width="120" height="60" as="geometry" />
        </mxCell>
        <mxCell id="V8J6lZMz988ycU7OSSYj-13" value="User.js" style="rounded=0;whiteSpace=wrap;html=1;" vertex="1" parent="1">
          <mxGeometry x="340" y="395" width="120" height="60" as="geometry" />
        </mxCell>
        <mxCell id="V8J6lZMz988ycU7OSSYj-14" value="Main.js" style="rounded=0;whiteSpace=wrap;html=1;" vertex="1" parent="1">
          <mxGeometry x="570" y="395" width="120" height="60" as="geometry" />
        </mxCell>
        <mxCell id="V8J6lZMz988ycU7OSSYj-25" value="Login.js" style="rounded=0;whiteSpace=wrap;html=1;" vertex="1" parent="1">
          <mxGeometry x="200" y="600" width="120" height="60" as="geometry" />
        </mxCell>
        <mxCell id="V8J6lZMz988ycU7OSSYj-26" value="Register.js" style="rounded=0;whiteSpace=wrap;html=1;" vertex="1" parent="1">
          <mxGeometry x="340" y="600" width="120" height="60" as="geometry" />
        </mxCell>
        <mxCell id="V8J6lZMz988ycU7OSSYj-27" value="AuthFind.js" style="rounded=0;whiteSpace=wrap;html=1;" vertex="1" parent="1">
          <mxGeometry x="480" y="600" width="120" height="60" as="geometry" />
        </mxCell>
        <mxCell id="V8J6lZMz988ycU7OSSYj-30" value="" style="endArrow=none;html=1;rounded=0;entryX=0.5;entryY=1;entryDx=0;entryDy=0;exitX=0.5;exitY=0;exitDx=0;exitDy=0;" edge="1" parent="1" source="V8J6lZMz988ycU7OSSYj-25" target="V8J6lZMz988ycU7OSSYj-13">
          <mxGeometry width="50" height="50" relative="1" as="geometry">
            <mxPoint x="330" y="520" as="sourcePoint" />
            <mxPoint x="380" y="470" as="targetPoint" />
          </mxGeometry>
        </mxCell>
        <mxCell id="V8J6lZMz988ycU7OSSYj-32" value="" style="endArrow=none;html=1;rounded=0;exitX=0.5;exitY=0;exitDx=0;exitDy=0;entryX=0.5;entryY=1;entryDx=0;entryDy=0;" edge="1" parent="1" source="V8J6lZMz988ycU7OSSYj-27" target="V8J6lZMz988ycU7OSSYj-13">
          <mxGeometry width="50" height="50" relative="1" as="geometry">
            <mxPoint x="450" y="570" as="sourcePoint" />
            <mxPoint x="480" y="460" as="targetPoint" />
          </mxGeometry>
        </mxCell>
        <mxCell id="V8J6lZMz988ycU7OSSYj-33" value="" style="endArrow=none;html=1;rounded=0;exitX=0.5;exitY=0;exitDx=0;exitDy=0;entryX=0.5;entryY=1;entryDx=0;entryDy=0;" edge="1" parent="1" source="V8J6lZMz988ycU7OSSYj-26" target="V8J6lZMz988ycU7OSSYj-13">
          <mxGeometry width="50" height="50" relative="1" as="geometry">
            <mxPoint x="380" y="560" as="sourcePoint" />
            <mxPoint x="490" y="500" as="targetPoint" />
          </mxGeometry>
        </mxCell>
      </root>
    </mxGraphModel>
  </diagram>
</mxfile>
